<svg xmlns="http://www.w3.org/2000/svg" viewBox="0 0 512 512" width="64" height="64"><path fill="#DFA878" d="M126.9,136.6c-4.1-11.4-7.2-22.9-9.2-34c-1.8-9.9-2.6-19.4-2.6-27.9c0-19.8,4.6-35.9,13.6-47.8 c14.2-18.9,34.9-26.9,59-26.9c16.3,0,30.3,3.7,40.9,7.6c1.8,0.7,3.6,1.4,5.3,2.1c16.3,6.3,35.4,13.8,55.9,13.8 c13.4,0,26.4-3.2,38.2-9.2c1.9-1,3.8-2,5.7-3.1c9.1-5.1,18.8-10.5,29.9-10.5c24.6,0,45.4,8.2,59.3,27.3 c8.8,12.1,13.1,28.4,13.1,48.5c0,13.3-1.6,26.8-4.9,40.1c-0.3,1.3-0.6,2.6-0.9,4c-1.3,5.1-2.7,10.2-4.2,15.2 c-2.8,9.7-6,18.9-9.6,27.7c-9.6,23.5-22.6,44.9-38.6,63.6l-50.6,59c-8.5-6.5-17.7-12-27.5-16.5l0,0c10.4-17.6,16.5-38.1,16.5-60.1 c0-62.8-50.9-113.8-113.8-113.8c-22,0-42.5,6.1-60.1,16.5l0,0c-4.4-9.8-9.9-19-16.5-27.5L126.9,136.6z"/><path fill="#8D5524" d="M428.1,234.8c-2.3,7.6-4.9,14.9-7.7,21.9c-2.8,2.8-5.7,5.5-8.6,8.1L303.6,379.3c-2,1.8-4.1,3.6-6.3,5.3 c-8,21.7-22.3,40.7-41.2,54.6c-4.3,3.2-8.8,6-13.5,8.5c-44,23.5-103.8,12.5-139.7-23.4c-35.9-35.9-46.9-95.7-23.4-139.7 c2.5-4.7,5.3-9.1,8.5-13.5c13.9-18.9,32.9-33.2,54.6-41.2c1.7-2.1,3.5-4.2,5.3-6.3L272.2,99.3c2.6-2.9,5.3-5.8,8.1-8.6 c7-2.8,14.3-5.3,21.9-7.7c1.3-5.1,2.7-10.2,4.2-15.2c0.3-1.3,0.6-2.6,0.9-4C312,47,314.9,31.1,316,21 c1.8-15.9-2.3-30.8-10.7-41.8c-1.3-1.7-2.7-3.4-4.1-5c1.4,1.4,2.8,2.7,4.1,3.9c13.2,12.2,30.8,19,49.2,19c11.1,0,20.8-3.3,27.3-6.7 c5.7-3,10.6-5.6,15.6-5.6c11.9,0,22,6.8,31,19.2c2.1,3,4,6.2,5.6,9.6c1.6,3.4,2.8,7.1,3.7,10.9c1.7,7.6,2.5,15.9,2.5,24.8 C440.1,193.3,436.1,215,428.1,234.8z"/><path fill="#DFA878" d="M129.5 316.5h103v103h-103z" transform="rotate(-45 181 368)"/></svg>
