<svg xmlns="http://www.w3.org/2000/svg" viewBox="0 0 512 512" width="64" height="64"><path fill="#A1887F" d="M366.3 113.4c-9.1-12.8-21.8-23-36.4-29.3-17.4-7.5-36.6-8.6-55.1-3.2-16.1 4.7-30.8 14.1-42.3 26.6-11.5 12.5-19.4 28-22.9 44.7-2.3 10.8-2.6 22-.8 32.9 1.8 10.9 5.3 21.4 10.3 31.1 5 9.7 11.5 18.6 19.4 26.3l61 57.5c6.5 6.1 14.2 10.9 22.7 13.9 8.5 3 17.6 4.2 26.6 3.4 18-1.6 34.8-10.2 46.7-23.8 11.9-13.6 17.6-31.5 15.9-49.5-.9-9-3.4-17.7-7.4-25.8-4-8.1-9.5-15.5-16.1-21.9l-22.4-21.9z"/><path fill="#FFCCBC" d="M129.5 401.5l45.2-46.8-23.4-22.4-45.2 46.8zM95.6 357.7l46.8 45.2-22.4 23.4-46.8-45.2z"/></svg>
