<svg xmlns="http://www.w3.org/2000/svg" viewBox="0 0 512 512" width="64" height="64"><path fill="#4CAF50" d="M370.7 221.7c17.5-38.3 11-85-23.7-114-16.1-13.4-36.8-21.2-57.7-21.7-6.2-22.3-15.3-43.3-27-62.8-5.3-8.9-10.9-17-16.9-24.6l-5-6-6.1 4.9c-29.4 23.4-55.8 54.4-74.6 86.8l-1.9 3.2-3.1-2.1c-4.4-3-8.9-5.8-13.5-8.4-44.5-24.7-100-11-130.3 32.2-31.1 44.4-20.5 106.6 22.8 138.3 4.2 3.1 8.5 5.8 12.9 8.2l8.8 4.7-2.3 9.7c-9.2 38.3 1.9 79.4 30 109.1l55.1 57.6c3.2 3.3 7.8 5.2 12.5 5.2h1.1c4.8-.2 9.3-2.5 12.3-6.2l34.4-42.6c8-9.9 14.8-20.7 20.2-32l6.2-13 13.5 5.2c6.2 2.4 12.6 4.3 19 5.8 53.9 12.1 109-20.1 123.3-72 13.7-49.9-12-102.8-60-120.3zM250.7 29.5c.3 1 .6 2 .9 3 .3-1 .6-2 .9-3zm-101 64.9c-2.4 14.4-1.2 29.2 3.2 43.1l1.7 5.2-4.9 2.5c-42.3 21.6-47 80.5-9.3 108.2 29.3 21.5 69.8 15.1 91.8-14.7l4-5.3 5.8 3c9.1 4.7 18.6 8.3 28.5 10.7 6.3 1.5 12.8 2.6 19.3 3.1l6.6.6v6.6c-4.3 64.6-67.6 111.4-129.5 97.4l-57.1-59.8c-23.7-25-33.1-59.7-25.3-91.9 3.7-15.6 10.9-30.2 20.9-42.5l5.5-6.8-8.2-3C93 148 90.7 146.4 88.5 144.6c-36.4-29.8-43.1-81.4-15.2-118.8 6.9-9.3 15.3-17.1 24.8-23.2 5.5 11 11.8 21.6 18.6 31.8 11.2 16.7 24.1 32.1 38.5 45.8l6.8 6.5-11.2 7.7zm193 173.2c-15.7 34-52.6 53.6-89.6 47.7l-6.3-1-3.6 5.3c-4.6 6.8-9.7 13.2-15.3 19.1l60.1 13.6c51.9 11.7 105-18.9 118.5-68.1 12.4-45-7.7-91.2-46.7-109.8-11.9-5.7-24.8-8.9-37.9-9.5-31.5-1.4-61.9 12-81.8 35.8l-4.3 5.1 3.5 5.5c11.9 18.2 18.1 39.4 18.1 61.1 0 11.4-1.7 22.8-5.1 33.7l-2.1 6.9 7 3.5c28.3 14 62.4 6.8 85.5-18.9z"/></svg>
