<svg xmlns="http://www.w3.org/2000/svg" viewBox="0 0 64 64">
  <!-- Soda Can -->
  <rect x="6" y="16" width="16" height="40" rx="3" fill="#E74C3C"/>
  <rect x="8" y="20" width="12" height="8" rx="1" fill="#C0392B"/>
  <ellipse cx="14" cy="16" rx="8" ry="2" fill="#B03A2E"/>
  <ellipse cx="14" cy="56" rx="8" ry="2" fill="#B03A2E"/>
  <rect x="6" y="14" width="16" height="4" rx="1" fill="#7B7D7D"/>
  <!-- Water Bottle -->
  <path d="M28 12h8v6h-8z" fill="#85C1E9"/>
  <rect x="26" y="18" width="12" height="38" rx="2" fill="#AED6F1"/>
  <rect x="28" y="12" width="8" height="3" rx="1" fill="#2E86C1"/>
  <path d="M30 24h4v8h-4z" fill="#D4E6F1"/>
  <!-- Coffee Cup -->
  <path d="M44 24h16v28c0 4-4 8-8 8s-8-4-8-8V24z" fill="#FDFEFE"/>
  <path d="M44 24h16c0 0 1 8-8 8s-8-8-8-8z" fill="#6F4E37"/>
  <path d="M60 30c4 0 6 4 6 8s-2 8-6 8" stroke="#D5D8DC" stroke-width="3" fill="none"/>
  <rect x="48" y="18" width="8" height="6" rx="1" fill="#6F4E37"/>
</svg>
