<svg xmlns="http://www.w3.org/2000/svg" viewBox="0 0 64 64">
  <!-- Smartphone -->
  <rect x="12" y="10" width="16" height="32" rx="2" fill="#34495E"/>
  <rect x="14" y="12" width="12" height="24" fill="#85C1E9"/>
  <circle cx="20" cy="39" r="1.5" fill="#5D6D7E"/>
  <!-- Laptop -->
  <rect x="28" y="22" width="28" height="18" rx="1" fill="#2C3E50"/>
  <rect x="30" y="24" width="24" height="14" fill="#3498DB"/>
  <path d="M26 40h32l-2 4H28z" fill="#95A5A6"/>
  <!-- Headphones -->
  <path d="M42 16c-6 0-10 4-10 10v4h4v-4c0-4 2-6 6-6s6 2 6 6v4h4v-4c0-6-4-10-10-10z" fill="#E74C3C"/>
  <rect x="30" y="26" width="4" height="8" rx="1" fill="#C0392B"/>
  <rect x="50" y="26" width="4" height="8" rx="1" fill="#C0392B"/>
  <!-- Circuit lines -->
  <circle cx="56" cy="12" r="2" fill="#F1C40F"/>
  <path d="M56 12l-4 4" stroke="#F1C40F" stroke-width="1"/>
</svg>
