<svg xmlns="http://www.w3.org/2000/svg" viewBox="0 0 64 64">
  <!-- Ice/Frozen Background -->
  <circle cx="32" cy="32" r="28" fill="#E8F6FF"/>
  <!-- Ice Cream -->
  <path d="M24 28l8 28 8-28z" fill="#D4A574"/>
  <circle cx="32" cy="24" r="10" fill="#F8BBD9"/>
  <circle cx="28" cy="22" r="6" fill="#CE93D8"/>
  <circle cx="36" cy="20" r="5" fill="#90CAF9"/>
  <!-- Snowflakes -->
  <path d="M12 20l2-2m-2 2l-2-2m2 2v3m0-6v3m-2 0h4" stroke="#64B5F6" stroke-width="1.5" fill="none"/>
  <path d="M52 40l2-2m-2 2l-2-2m2 2v3m0-6v3m-2 0h4" stroke="#64B5F6" stroke-width="1.5" fill="none"/>
  <path d="M48 16l1.5-1.5m-1.5 1.5l-1.5-1.5m1.5 1.5v2m0-4v2m-1.5 0h3" stroke="#64B5F6" stroke-width="1" fill="none"/>
  <!-- Frozen bag -->
  <rect x="6" y="38" width="14" height="18" rx="2" fill="#81D4FA"/>
  <path d="M8 44h10M8 48h10M8 52h10" stroke="#4FC3F7" stroke-width="1"/>
  <text x="13" y="42" font-size="4" fill="#0288D1" text-anchor="middle">ICE</text>
</svg>
