<svg xmlns="http://www.w3.org/2000/svg" viewBox="0 0 64 64">
  <!-- Apple -->
  <path d="M18 28c-6 0-10 6-10 14s4 14 10 14c3 0 5-2 6-4 1 2 3 4 6 4 6 0 10-6 10-14s-4-14-10-14c-3 0-5 2-6 4-1-2-3-4-6-4z" fill="#E74C3C"/>
  <path d="M24 28c0 0 0-6 4-8" stroke="#8B4513" stroke-width="2" fill="none" stroke-linecap="round"/>
  <path d="M26 22c2-1 4 0 4 2" fill="#2ECC71"/>
  <!-- Orange -->
  <path d="M44 24c-7 0-12 5-12 12s5 12 12 12 12-5 12-12-5-12-12-12z" fill="#F39C12"/>
  <path d="M44 24c0 0 0-4 2-4" stroke="#2ECC71" stroke-width="2" fill="none" stroke-linecap="round"/>
  <ellipse cx="40" cy="36" rx="2" ry="3" fill="#E67E22"/>
  <!-- Banana -->
  <path d="M6 14c4-2 12 0 16 6s4 12 0 14-12 0-16-6c-2-4 0-8 4-8s6 2 6 4" fill="#F1C40F" stroke="#D4AC0D" stroke-width="1"/>
  <path d="M22 12c2-2 4-2 6 0" fill="#8B4513"/>
</svg>
