<svg xmlns="http://www.w3.org/2000/svg" viewBox="0 0 64 64">
  <!-- Cleaning Spray Bottle -->
  <rect x="6" y="24" width="18" height="32" rx="3" fill="#5DADE2"/>
  <rect x="10" y="14" width="10" height="10" rx="1" fill="#2E86C1"/>
  <rect x="20" y="16" width="8" height="4" rx="1" fill="#1A5276"/>
  <path d="M28 18h6l-2 8h-4z" fill="#85C1E9"/>
  <!-- Soap/Detergent -->
  <rect x="34" y="28" width="14" height="28" rx="2" fill="#AF7AC5"/>
  <rect x="38" y="22" width="6" height="6" rx="1" fill="#8E44AD"/>
  <rect x="36" y="34" width="10" height="4" rx="1" fill="#D7BDE2"/>
  <!-- Bubbles -->
  <circle cx="52" cy="20" r="4" fill="#E8F6FF" stroke="#5DADE2" stroke-width="1"/>
  <circle cx="58" cy="28" r="3" fill="#E8F6FF" stroke="#5DADE2" stroke-width="1"/>
  <circle cx="54" cy="36" r="2" fill="#E8F6FF" stroke="#5DADE2" stroke-width="1"/>
  <circle cx="50" cy="44" r="5" fill="#E8F6FF" stroke="#5DADE2" stroke-width="1"/>
  <!-- Sparkles -->
  <path d="M56 12l1 3 3 1-3 1-1 3-1-3-3-1 3-1z" fill="#F4D03F"/>
</svg>
