<svg xmlns="http://www.w3.org/2000/svg" viewBox="0 0 64 64">
  <!-- Meat/Steak -->
  <ellipse cx="24" cy="32" rx="18" ry="14" fill="#CD6155"/>
  <ellipse cx="24" cy="32" rx="12" ry="9" fill="#E74C3C"/>
  <path d="M18 28c0-2 3-4 6-4s6 2 6 4" fill="#FADBD8"/>
  <!-- Bone -->
  <path d="M40 20c0-3 2-5 5-5s5 2 5 5c0 2-1 3-2 4l8 18c1 2-1 4-3 4s-4-2-5-4l-8-18c-1-1-2-2-2-4 0-3 2-5 5-5s5 2 5 5" fill="#F5F5DC"/>
  <circle cx="45" cy="20" r="4" fill="#FDFEFE"/>
  <circle cx="51" cy="42" r="3" fill="#FDFEFE"/>
  <!-- Fish -->
  <path d="M8 50c0 0 6-6 14-6s10 6 10 6-4 6-10 6-14-6-14-6z" fill="#5DADE2"/>
  <circle cx="26" cy="50" r="2" fill="#1A5276"/>
  <path d="M8 50l-4-4v8z" fill="#3498DB"/>
</svg>
