<svg xmlns="http://www.w3.org/2000/svg" viewBox="0 0 64 64">
  <!-- Carrot -->
  <path d="M28 18c0-4 6-8 10-6s4 8 2 14l-8 26c-1 3-5 3-6 0l-6-26c-2-6-2-12 2-14s6 2 6 6z" fill="#FF6B35"/>
  <path d="M30 12c-2-4 0-8 4-8s6 4 6 8c0 2-2 4-4 4h-2c-2 0-4-2-4-4z" fill="#2ECC71"/>
  <path d="M34 10c-1-3 0-6 3-6s5 3 5 6-2 3-4 3-4 0-4-3z" fill="#27AE60"/>
  <!-- Broccoli -->
  <path d="M44 38c-3 0-5 2-5 4s2 4 5 4c2 0 4-1 5-2 1 1 3 2 5 2 3 0 5-2 5-4s-2-4-5-4c-1 0-2 0-3 1-1-1-2-1-3-1h-4z" fill="#2ECC71"/>
  <path d="M48 42v12c0 1-1 2-2 2h-2c-1 0-2-1-2-2V42" fill="#27AE60"/>
  <!-- Tomato -->
  <path d="M12 44c0-6 5-10 10-10s10 4 10 10-5 10-10 10-10-4-10-10z" fill="#E74C3C"/>
  <path d="M20 34c0 0 2-4 2-4s2 4 2 4" fill="#2ECC71"/>
  <ellipse cx="22" cy="44" rx="2" ry="3" fill="#C0392B"/>
</svg>
